<svg id="Icons" xmlns="http://www.w3.org/2000/svg" viewBox="0 0 66 66"><defs><style>.cls-1{fill:#cf5536;}.cls-2{fill:#f3643f;}.cls-3{opacity:0.15;}.cls-4{fill:#fffcf2;}</style></defs><title>down-arrow</title><g id="Arrow"><g id="Circle_Shadow" data-name="Circle Shadow"><circle class="cls-1" cx="33" cy="34" r="31"/></g><g id="Circle"><circle class="cls-2" cx="33" cy="32" r="31"/></g><path id="Long_Shadow" data-name="Long Shadow" class="cls-3" d="M26.86,42.69l18,18A31.07,31.07,0,0,0,62.7,40.88l-24.3-24.3Z"/><g id="Arrow-2" data-name="Arrow"><path class="cls-4" d="M45,36a2,2,0,0,0-2-2H39V18a2,2,0,0,0-2-2H29a2,2,0,0,0-2,2V34H23a2,2,0,0,0-1.41,3.41l10,10a2,2,0,0,0,2.83,0l10-10A2,2,0,0,0,45,36Z"/></g></g></svg>